<svg width="50" height="50" viewBox="0 0 50 50" fill="none" xmlns="http://www.w3.org/2000/svg">
<path d="M25 35C25 40.5228 29.4772 45 35 45C40.5228 45 45 40.5228 45 35C45 29.4772 40.5228 25 35 25H25V35Z" fill="#FFD11A"/>
<path d="M25 15C25 9.47715 20.5228 5 15 5C9.47715 5 5 9.47715 5 15C5 20.5228 9.47715 25 15 25H25V15Z" fill="#FFD11A"/>
<path fill-rule="evenodd" clip-rule="evenodd" d="M35 5C29.4772 5 25 9.47715 25 15V25H35C40.5228 25 45 20.5228 45 15C45 9.47715 40.5228 5 35 5ZM40 15C40 17.7614 37.7614 20 35 20C32.2386 20 30 17.7614 30 15C30 12.2386 32.2386 10 35 10C37.7614 10 40 12.2386 40 15Z" fill="#404040"/>
<path fill-rule="evenodd" clip-rule="evenodd" d="M15 45C20.5228 45 25 40.5228 25 35V25H15C9.47715 25 5 29.4772 5 35C5 40.5228 9.47715 45 15 45ZM20 35C20 37.7614 17.7614 40 15 40C12.2386 40 10 37.7614 10 35C10 32.2386 12.2386 30 15 30C17.7614 30 20 32.2386 20 35Z" fill="#404040"/>
</svg>
